# xmcd
#
# Track frame offsets:
#	183
#	17270
#	36478
#	50190
#	86950
#	120708
#	178290
#
# Disc length: 2449 seconds
#
# Revision: 0
# Processed by: cddbd v1.5.1PL0 Copyright (c) Steve Scherf et al.
# Submitted via: dBpowerAMP V4.0
#
DISCID=61098f07
DTITLE=Mad River - Mad River
DYEAR=1968
DGENRE=Blues
TTITLE0=Merciful Monks
TTITLE1=High All The Time
TTITLE2=Amphetamine Gazelle
TTITLE3=Eastern Light
TTITLE4=Wind Chimes
TTITLE5=The War Goes On
TTITLE6=Hush, Julian
EXTD=
EXTT0=
EXTT1=
EXTT2=
EXTT3=
EXTT4=
EXTT5=
EXTT6=
PLAYORDER=
